<svg width="22" height="21" viewBox="0 0 22 21" fill="none" xmlns="http://www.w3.org/2000/svg">
<g id="search_24px">
<path id="icon/action/search_24px" fill-rule="evenodd" clip-rule="evenodd" d="M13.4361 12.6627H14.1221L17.8043 16.3902C18.1604 16.7489 18.1604 17.3352 17.8043 17.6939C17.4482 18.0527 16.8664 18.0527 16.5103 17.6939L12.8195 13.9752V13.2839L12.585 13.0389C11.3692 14.0889 9.71046 14.6314 7.94753 14.3339C5.53328 13.9227 3.60535 11.8927 3.31008 9.44266C2.85849 5.74141 5.95013 2.62641 9.62362 3.08141C12.0552 3.37891 14.07 5.32141 14.4782 7.75391C14.7735 9.53016 14.235 11.2014 13.1929 12.4264L13.4361 12.6627ZM5.00353 8.72516C5.00353 10.9039 6.74909 12.6627 8.9115 12.6627C11.0739 12.6627 12.8195 10.9039 12.8195 8.72516C12.8195 6.54641 11.0739 4.78766 8.9115 4.78766C6.74909 4.78766 5.00353 6.54641 5.00353 8.72516Z" fill="#1B1B1B"/>
</g>
</svg>
